C:\Users\u0150099\Documents\master_thesis\3dpredictsim\Polynomials\Fal_s1_mtppin_sc\dummy_motion.mot
nRows=13
nColumns=32

name C:\Users\u0150099\Documents\master_thesis\3dpredictsim\Polynomials\Fal_s1_mtppin_sc\dummy_motion.mot
datacolumns 32
datarows 13
range 37.5100000000 37.6300000000
endheader
time	pelvis_tilt	pelvis_list	pelvis_rotation	pelvis_tx	pelvis_ty	pelvis_tz	hip_flexion_r	hip_adduction_r	hip_rotation_r	knee_angle_r	ankle_angle_r	subtalar_angle_r	mtp_angle_r	hip_flexion_l	hip_adduction_l	hip_rotation_l	knee_angle_l	ankle_angle_l	subtalar_angle_l	mtp_angle_l	lumbar_extension	lumbar_bending	lumbar_rotation	arm_flex_r	arm_add_r	arm_rot_r	elbow_flex_r	arm_flex_l	arm_add_l	arm_rot_l	elbow_flex_l
       37.5100000000	        0.0000000000	        0.0000000000	        0.0000000000	        0.0000000000	        0.0000000000	        0.0000000000	       22.6387541801	        4.2383652619	      -20.7820061577	      -62.1025703323	       -7.6124987687	       21.4449382910	        9.6923062866	        0.0000000000	        0.0000000000	        0.0000000000	        0.0000000000	        0.0000000000	        0.0000000000	        0.0000000000	       -5.5692865692	       16.8486751316	       -5.6980492629	        0.0000000000	        0.0000000000	        0.0000000000	        0.0000000000	        0.0000000000	        0.0000000000	        0.0000000000	        0.0000000000	
       37.5200000000	        0.0000000000	        0.0000000000	        0.0000000000	        0.0000000000	        0.0000000000	        0.0000000000	       20.5662225761	       -6.4353246129	       -6.1649859605	      -49.5850206358	      -26.5160082524	       -4.9503625953	      -21.6087013668	        0.0000000000	        0.0000000000	        0.0000000000	        0.0000000000	        0.0000000000	        0.0000000000	        0.0000000000	      -28.0962947964	       -5.1480735848	      -10.7159070296	        0.0000000000	        0.0000000000	        0.0000000000	        0.0000000000	        0.0000000000	        0.0000000000	        0.0000000000	        0.0000000000	
       37.5300000000	        0.0000000000	        0.0000000000	        0.0000000000	        0.0000000000	        0.0000000000	        0.0000000000	        4.3354592384	      -20.7904467066	      -10.3389435357	       -9.2911261779	      -28.1768160261	        9.8392801763	       24.6182197899	        0.0000000000	        0.0000000000	        0.0000000000	        0.0000000000	        0.0000000000	        0.0000000000	        0.0000000000	       -2.2174255989	       26.8475123283	      -29.5943690659	        0.0000000000	        0.0000000000	        0.0000000000	        0.0000000000	        0.0000000000	        0.0000000000	        0.0000000000	        0.0000000000	
       37.5400000000	        0.0000000000	        0.0000000000	        0.0000000000	        0.0000000000	        0.0000000000	        0.0000000000	      -26.9694339184	        6.9216349904	      -14.0176023036	      -41.7822523268	      -10.1477623919	        1.8218227557	       16.2616713003	        0.0000000000	        0.0000000000	        0.0000000000	        0.0000000000	        0.0000000000	        0.0000000000	        0.0000000000	       -9.4447840752	        5.8836454407	       -6.3815413135	        0.0000000000	        0.0000000000	        0.0000000000	        0.0000000000	        0.0000000000	        0.0000000000	        0.0000000000	        0.0000000000	
       37.5500000000	        0.0000000000	        0.0000000000	        0.0000000000	        0.0000000000	        0.0000000000	        0.0000000000	        0.9634860504	      -14.4729939641	       17.3211359659	      -73.9963011336	       13.8039603129	      -27.5267627054	       26.2251348874	        0.0000000000	        0.0000000000	        0.0000000000	        0.0000000000	        0.0000000000	        0.0000000000	        0.0000000000	      -28.1696736906	       -8.6865015418	        9.3774092009	        0.0000000000	        0.0000000000	        0.0000000000	        0.0000000000	        0.0000000000	        0.0000000000	        0.0000000000	        0.0000000000	
       37.5600000000	        0.0000000000	        0.0000000000	        0.0000000000	        0.0000000000	        0.0000000000	        0.0000000000	        6.8098493456	      -15.8652212076	       -4.7004105220	      -32.7329510560	       16.6186079999	      -26.1733177773	       47.7812530227	        0.0000000000	        0.0000000000	        0.0000000000	        0.0000000000	        0.0000000000	        0.0000000000	        0.0000000000	       -0.3955806321	      -11.6480690973	       11.9195793164	        0.0000000000	        0.0000000000	        0.0000000000	        0.0000000000	        0.0000000000	        0.0000000000	        0.0000000000	        0.0000000000	
       37.5700000000	        0.0000000000	        0.0000000000	        0.0000000000	        0.0000000000	        0.0000000000	        0.0000000000	       11.1648397221	      -29.0952881802	      -25.5502697430	      -41.8826224426	      -23.8945324006	      -27.1572900889	       26.8706182621	        0.0000000000	        0.0000000000	        0.0000000000	        0.0000000000	        0.0000000000	        0.0000000000	        0.0000000000	      -13.2959864780	       25.8312944462	       -7.9909636040	        0.0000000000	        0.0000000000	        0.0000000000	        0.0000000000	        0.0000000000	        0.0000000000	        0.0000000000	        0.0000000000	
       37.5800000000	        0.0000000000	        0.0000000000	        0.0000000000	        0.0000000000	        0.0000000000	        0.0000000000	      -25.2395231156	       29.4862629753	       13.2400494989	      -56.4284638920	      -17.2143384342	      -17.5070096059	       18.3101534432	        0.0000000000	        0.0000000000	        0.0000000000	        0.0000000000	        0.0000000000	        0.0000000000	        0.0000000000	      -27.0034058022	      -17.1932533521	       18.0733664843	        0.0000000000	        0.0000000000	        0.0000000000	        0.0000000000	        0.0000000000	        0.0000000000	        0.0000000000	        0.0000000000	
       37.5900000000	        0.0000000000	        0.0000000000	        0.0000000000	        0.0000000000	        0.0000000000	        0.0000000000	      -20.2688033242	       22.7961516657	      -21.7754187408	      -64.0292685334	      -28.3214969039	        5.4877667059	       32.1556306492	        0.0000000000	        0.0000000000	        0.0000000000	        0.0000000000	        0.0000000000	        0.0000000000	        0.0000000000	        7.5047670680	      -11.3659937295	      -28.5838211905	        0.0000000000	        0.0000000000	        0.0000000000	        0.0000000000	        0.0000000000	        0.0000000000	        0.0000000000	        0.0000000000	
       37.6000000000	        0.0000000000	        0.0000000000	        0.0000000000	        0.0000000000	        0.0000000000	        0.0000000000	       28.8591727782	        6.0542944623	       18.9929918370	      -25.7514515465	        8.2207924430	       26.5895818592	      -29.1820416582	        0.0000000000	        0.0000000000	        0.0000000000	        0.0000000000	        0.0000000000	        0.0000000000	        0.0000000000	        3.3402977361	       -5.8467181950	       25.5998234895	        0.0000000000	        0.0000000000	        0.0000000000	        0.0000000000	        0.0000000000	        0.0000000000	        0.0000000000	        0.0000000000	
       37.6100000000	        0.0000000000	        0.0000000000	        0.0000000000	        0.0000000000	        0.0000000000	        0.0000000000	        0.2980679824	       -9.3238211704	       22.4181398316	      -19.9098960035	       11.7398541093	       -6.9173364952	       30.1995117523	        0.0000000000	        0.0000000000	        0.0000000000	        0.0000000000	        0.0000000000	        0.0000000000	        0.0000000000	       24.1788073898	       24.6071020022	      -12.5119107355	        0.0000000000	        0.0000000000	        0.0000000000	        0.0000000000	        0.0000000000	        0.0000000000	        0.0000000000	        0.0000000000	
       37.6200000000	        0.0000000000	        0.0000000000	        0.0000000000	        0.0000000000	        0.0000000000	        0.0000000000	       10.7163537865	       -0.8931178448	       -0.1624801714	      -88.4620876025	       13.0472161089	        2.6194262792	       14.8747680760	        0.0000000000	        0.0000000000	        0.0000000000	        0.0000000000	        0.0000000000	        0.0000000000	        0.0000000000	       14.2562986170	      -12.6350893919	       17.3531354219	        0.0000000000	        0.0000000000	        0.0000000000	        0.0000000000	        0.0000000000	        0.0000000000	        0.0000000000	        0.0000000000	
       37.6300000000	        0.0000000000	        0.0000000000	        0.0000000000	        0.0000000000	        0.0000000000	        0.0000000000	      -48.0800262476	      -14.9472195664	      -13.3227626790	      -60.3252243619	      -17.3356832177	       11.0389188892	      -26.0725992467	        0.0000000000	        0.0000000000	        0.0000000000	        0.0000000000	        0.0000000000	        0.0000000000	        0.0000000000	       20.2335511330	       17.3682262859	      -15.4833751226	        0.0000000000	        0.0000000000	        0.0000000000	        0.0000000000	        0.0000000000	        0.0000000000	        0.0000000000	        0.0000000000	
